External Loads File
version=1
nRows=31
nColumns=13
Range=5.000000e-03-10 seconds
endheader
time 	forceRightX 	forceRightY 	forceRightZ 	pointRightX 	pointRightY 	pointRightZ 	forceLeftX 	forceLeftY 	forceLeftZ 	pointLeftX 	pointLeftY 	pointLeftZ 		
5.005000 -70.886613 851.212533 -0.000000 0.427410 0.220105 -0.110491 -4.519262 -60.111006 -0.000000 0.187654 0.393197 -0.354300
5.010000 -43.746777 849.125834 -0.000000 0.422176 0.210890 -0.110384 -12.715474 -66.219740 -0.000000 0.193327 0.403021 -0.353942
5.015000 -15.960883 842.230934 -0.000000 0.416454 0.202195 -0.110338 -21.238713 -71.798304 -0.000000 0.199482 0.412780 -0.353467
5.020000 12.392859 830.227757 -0.000000 0.410240 0.193983 -0.110253 -30.029020 -76.164651 -0.000000 0.206796 0.421849 -0.352815
5.025000 37.670712 813.036186 -0.000000 0.403592 0.186111 -0.110185 -38.650985 -78.828099 -0.000000 0.213183 0.430632 -0.352281
5.030000 62.446541 790.601578 -0.000000 0.396550 0.178582 -0.110042 -47.223075 -79.108421 -0.000000 0.220411 0.438744 -0.351883
5.035000 84.948561 763.045910 -0.000000 0.389163 0.171638 -0.109827 -55.441110 -76.535075 -0.000000 0.227813 0.446324 -0.351731
5.040000 105.371693 730.497382 -0.000000 0.381394 0.165546 -0.109738 -63.177515 -70.654096 -0.000000 0.235765 0.453083 -0.351794
5.045000 123.520404 693.315074 -0.000000 0.373302 0.159929 -0.109594 -70.263484 -61.199817 -0.000000 0.243872 0.459372 -0.351716
5.050000 139.113209 652.259444 -0.000000 0.364784 0.155002 -0.109750 -76.508580 -48.060227 -0.000000 0.252155 0.464877 -0.351798
5.055000 152.520068 608.441910 -0.000000 0.356134 0.150752 -0.109405 -81.723374 -31.141563 -0.000000 0.260957 0.469836 -0.352077
5.060000 163.684605 563.500033 -0.000000 0.347033 0.146937 -0.109366 -85.596478 -10.515004 -0.000000 0.269863 0.474171 -0.352376
5.065000 172.470639 519.396575 -0.000000 0.337500 0.144266 -0.109349 -87.769138 13.519695 -0.000000 0.278791 0.477816 -0.352749
5.070000 179.305140 477.906556 -0.000000 0.327556 0.141932 -0.109456 -87.934224 40.527388 -0.000000 0.287535 0.481113 -0.353231
5.075000 184.292844 440.491069 -0.000000 0.317286 0.140399 -0.109501 -85.985867 69.925358 -0.000000 0.295980 0.483645 -0.353726
5.080000 187.872478 407.691589 -0.000000 0.306779 0.139483 -0.109320 -82.105803 101.310197 -0.000000 0.304006 0.485563 -0.354083
5.085000 190.619082 378.946797 -0.000000 0.296054 0.138763 -0.109761 -76.716509 134.615659 -0.000000 0.311710 0.486879 -0.354604
5.090000 192.287603 353.128241 -0.000000 0.285653 0.139113 -0.109929 -70.728253 169.944524 -0.000000 0.319010 0.487103 -0.355013
5.095000 193.142757 328.203608 -0.000000 0.275533 0.140015 -0.110186 -65.050969 207.610060 -0.000000 0.326022 0.487060 -0.355739
5.100000 193.366644 301.892043 -0.000000 0.265636 0.141561 -0.110433 -60.602300 247.647884 -0.000000 0.332770 0.486119 -0.356519
5.105000 192.686940 272.270478 -0.000000 0.256414 0.143765 -0.109927 -58.662296 289.537618 -0.000000 0.339421 0.484574 -0.357271
5.110000 191.635521 237.115339 -0.000000 0.247088 0.146841 -0.110263 -59.520201 332.525338 -0.000000 0.345988 0.482198 -0.357929
5.115000 189.493571 195.448199 -0.000000 0.238266 0.150494 -0.110522 -64.197394 375.359282 -0.000000 0.352605 0.478849 -0.358627
5.120000 185.707932 146.811187 -0.000000 0.229938 0.154878 -0.110705 -72.941204 416.723713 -0.000000 0.359358 0.474826 -0.359185
5.125000 179.573340 91.546546 -0.000000 0.221490 0.159732 -0.111522 -84.868793 455.410335 -0.000000 0.366310 0.470060 -0.359614
5.130000 169.749325 32.002730 -0.000000 0.214192 0.165465 -0.111656 -100.763391 489.999411 -0.000000 0.373391 0.464797 -0.359872
5.135000 155.723459 -29.138642 -0.000000 0.207534 0.171049 -0.111743 -119.797838 519.657233 -0.000000 0.380451 0.458677 -0.360268
5.140000 137.332430 -88.743218 -0.000000 0.201491 0.177496 -0.111947 -140.467224 544.246747 -0.000000 0.387476 0.452059 -0.360535
5.145000 115.131172 -143.262688 -0.000000 0.195995 0.183927 -0.112040 -162.453294 563.971364 -0.000000 0.394319 0.444800 -0.360741
5.150000 90.431616 -189.746639 -0.000000 0.191088 0.190520 -0.112014 -185.212074 579.601970 -0.000000 0.400880 0.437131 -0.360981
5.155000 64.384823 -226.294159 -0.000000 0.186437 0.198205 -0.111994 -206.617419 592.835909 -0.000000 0.407274 0.429250 -0.361059
